<mxfile host="65bd71144e">
    <diagram id="QHNl4G33vLX9MvskURps" name="Page-1">
        <mxGraphModel dx="1057" dy="566" grid="1" gridSize="10" guides="1" tooltips="1" connect="1" arrows="1" fold="1" page="1" pageScale="1" pageWidth="850" pageHeight="1100" math="0" shadow="0">
            <root>
                <mxCell id="0"/>
                <mxCell id="1" parent="0"/>
                <mxCell id="2" value="Forntend" style="shape=module;align=left;spacingLeft=20;align=center;verticalAlign=top;" parent="1" vertex="1">
                    <mxGeometry x="20" y="100" width="420" height="260" as="geometry"/>
                </mxCell>
                <mxCell id="3" value="Backend" style="shape=module;align=left;spacingLeft=20;align=center;verticalAlign=top;" parent="1" vertex="1">
                    <mxGeometry x="520" y="100" width="310" height="330" as="geometry"/>
                </mxCell>
                <mxCell id="4" value="Grenzwerte" style="shape=module;align=left;spacingLeft=20;align=center;verticalAlign=top;" parent="1" vertex="1">
                    <mxGeometry x="40" y="280" width="110" height="50" as="geometry"/>
                </mxCell>
                <mxCell id="5" value="Graphic-page" style="shape=module;align=left;spacingLeft=20;align=center;verticalAlign=top;" parent="1" vertex="1">
                    <mxGeometry x="60" y="140" width="100" height="50" as="geometry"/>
                </mxCell>
                <mxCell id="8" value="port1" style="fontStyle=0;labelPosition=right;verticalLabelPosition=middle;align=left;verticalAlign=middle;spacingLeft=2;" parent="1" vertex="1">
                    <mxGeometry x="425" y="140" width="30" height="60" as="geometry"/>
                </mxCell>
                <mxCell id="9" value="http-client" style="shape=module;align=left;spacingLeft=20;align=center;verticalAlign=top;" parent="1" vertex="1">
                    <mxGeometry x="290" y="140" width="100" height="50" as="geometry"/>
                </mxCell>
                <mxCell id="11" value="Geh zu Graphic" style="html=1;verticalAlign=bottom;labelBackgroundColor=none;endArrow=block;endFill=1;dashed=1;exitX=0.636;exitY=0;exitDx=0;exitDy=0;exitPerimeter=0;entryX=0.5;entryY=1;entryDx=0;entryDy=0;" parent="1" source="4" target="5" edge="1">
                    <mxGeometry width="160" relative="1" as="geometry">
                        <mxPoint x="-10" y="210" as="sourcePoint"/>
                        <mxPoint x="200" y="292" as="targetPoint"/>
                    </mxGeometry>
                </mxCell>
                <mxCell id="12" value="" style="rounded=0;orthogonalLoop=1;jettySize=auto;html=1;endArrow=none;endFill=0;sketch=0;sourcePerimeterSpacing=0;targetPerimeterSpacing=0;exitX=0.11;exitY=0.14;exitDx=0;exitDy=0;exitPerimeter=0;" parent="1" source="9" target="14" edge="1">
                    <mxGeometry relative="1" as="geometry">
                        <mxPoint x="380" y="395" as="sourcePoint"/>
                    </mxGeometry>
                </mxCell>
                <mxCell id="13" value="Scan and Restor" style="rounded=0;orthogonalLoop=1;jettySize=auto;html=1;endArrow=halfCircle;endFill=0;entryX=0.5;entryY=0.5;endSize=6;strokeWidth=1;sketch=0;exitX=1;exitY=0.1;exitDx=0;exitDy=0;exitPerimeter=0;" parent="1" target="14" edge="1" source="5">
                    <mxGeometry x="0.0087" relative="1" as="geometry">
                        <mxPoint x="290" y="330" as="sourcePoint"/>
                        <mxPoint as="offset"/>
                    </mxGeometry>
                </mxCell>
                <mxCell id="14" value="" style="ellipse;whiteSpace=wrap;html=1;align=center;aspect=fixed;resizable=0;points=[];outlineConnect=0;sketch=0;" parent="1" vertex="1">
                    <mxGeometry x="270" y="140" width="10" height="10" as="geometry"/>
                </mxCell>
                <mxCell id="15" value="" style="rounded=0;orthogonalLoop=1;jettySize=auto;html=1;endArrow=none;endFill=0;sketch=0;sourcePerimeterSpacing=0;targetPerimeterSpacing=0;exitX=0.12;exitY=0.88;exitDx=0;exitDy=0;exitPerimeter=0;" edge="1" target="17" parent="1" source="9">
                    <mxGeometry relative="1" as="geometry">
                        <mxPoint x="160" y="190" as="sourcePoint"/>
                    </mxGeometry>
                </mxCell>
                <mxCell id="16" value="Scan" style="rounded=0;orthogonalLoop=1;jettySize=auto;html=1;endArrow=halfCircle;endFill=0;entryX=0.5;entryY=0.5;endSize=6;strokeWidth=1;sketch=0;" edge="1" target="17" parent="1">
                    <mxGeometry relative="1" as="geometry">
                        <mxPoint x="160" y="185" as="sourcePoint"/>
                    </mxGeometry>
                </mxCell>
                <mxCell id="17" value="" style="ellipse;whiteSpace=wrap;html=1;align=center;aspect=fixed;resizable=0;points=[];outlineConnect=0;sketch=0;" vertex="1" parent="1">
                    <mxGeometry x="230" y="180" width="10" height="10" as="geometry"/>
                </mxCell>
                <mxCell id="20" value="http-Server" style="shape=module;align=left;spacingLeft=20;align=center;verticalAlign=top;" vertex="1" parent="1">
                    <mxGeometry x="600" y="140" width="190" height="50" as="geometry"/>
                </mxCell>
                <mxCell id="21" value="8082" style="fontStyle=0;labelPosition=right;verticalLabelPosition=middle;align=left;verticalAlign=middle;spacingLeft=2;" vertex="1" parent="1">
                    <mxGeometry x="520" y="150" width="30" height="40" as="geometry"/>
                </mxCell>
                <mxCell id="23" value="" style="rounded=0;orthogonalLoop=1;jettySize=auto;html=1;endArrow=none;endFill=0;sketch=0;sourcePerimeterSpacing=0;targetPerimeterSpacing=0;exitX=0.07;exitY=0.22;exitDx=0;exitDy=0;exitPerimeter=0;" edge="1" target="25" parent="1" source="20">
                    <mxGeometry relative="1" as="geometry">
                        <mxPoint x="590" y="130" as="sourcePoint"/>
                    </mxGeometry>
                </mxCell>
                <mxCell id="24" value="San and Restor" style="rounded=0;orthogonalLoop=1;jettySize=auto;html=1;endArrow=halfCircle;endFill=0;entryX=0.5;entryY=0.5;endSize=6;strokeWidth=1;sketch=0;exitX=1;exitY=0.25;exitDx=0;exitDy=0;" edge="1" target="25" parent="1" source="9">
                    <mxGeometry relative="1" as="geometry">
                        <mxPoint x="390" y="265" as="sourcePoint"/>
                    </mxGeometry>
                </mxCell>
                <mxCell id="25" value="" style="ellipse;whiteSpace=wrap;html=1;align=center;aspect=fixed;resizable=0;points=[];outlineConnect=0;sketch=0;" vertex="1" parent="1">
                    <mxGeometry x="500" y="150" width="10" height="10" as="geometry"/>
                </mxCell>
                <mxCell id="26" value="" style="rounded=0;orthogonalLoop=1;jettySize=auto;html=1;endArrow=none;endFill=0;sketch=0;sourcePerimeterSpacing=0;targetPerimeterSpacing=0;exitX=0.09;exitY=0.88;exitDx=0;exitDy=0;exitPerimeter=0;" edge="1" target="28" parent="1" source="20">
                    <mxGeometry relative="1" as="geometry">
                        <mxPoint x="350" y="255" as="sourcePoint"/>
                    </mxGeometry>
                </mxCell>
                <mxCell id="27" value="Scan" style="rounded=0;orthogonalLoop=1;jettySize=auto;html=1;endArrow=halfCircle;endFill=0;entryX=0.5;entryY=0.5;endSize=6;strokeWidth=1;sketch=0;" edge="1" target="28" parent="1">
                    <mxGeometry relative="1" as="geometry">
                        <mxPoint x="390" y="185" as="sourcePoint"/>
                    </mxGeometry>
                </mxCell>
                <mxCell id="28" value="" style="ellipse;whiteSpace=wrap;html=1;align=center;aspect=fixed;resizable=0;points=[];outlineConnect=0;sketch=0;" vertex="1" parent="1">
                    <mxGeometry x="490" y="180" width="10" height="10" as="geometry"/>
                </mxCell>
                <mxCell id="29" value="Datenbank" style="shape=module;align=left;spacingLeft=20;align=center;verticalAlign=top;" vertex="1" parent="1">
                    <mxGeometry x="700" y="370" width="120" height="50" as="geometry"/>
                </mxCell>
                <mxCell id="30" value="Textdatei" style="shape=module;align=left;spacingLeft=20;align=center;verticalAlign=top;" vertex="1" parent="1">
                    <mxGeometry x="550" y="440" width="120" height="50" as="geometry"/>
                </mxCell>
                <mxCell id="31" value="Scanner" style="shape=module;align=left;spacingLeft=20;align=center;verticalAlign=top;" vertex="1" parent="1">
                    <mxGeometry x="550" y="240" width="250" height="60" as="geometry"/>
                </mxCell>
                <mxCell id="32" value="" style="rounded=0;orthogonalLoop=1;jettySize=auto;html=1;endArrow=none;endFill=0;sketch=0;sourcePerimeterSpacing=0;targetPerimeterSpacing=0;" edge="1" target="34" parent="1">
                    <mxGeometry relative="1" as="geometry">
                        <mxPoint x="625" y="240" as="sourcePoint"/>
                    </mxGeometry>
                </mxCell>
                <mxCell id="33" value="Scan" style="rounded=0;orthogonalLoop=1;jettySize=auto;html=1;endArrow=halfCircle;endFill=0;entryX=0.5;entryY=0.5;endSize=6;strokeWidth=1;sketch=0;exitX=0.142;exitY=0.98;exitDx=0;exitDy=0;exitPerimeter=0;" edge="1" target="34" parent="1" source="20">
                    <mxGeometry relative="1" as="geometry">
                        <mxPoint x="690" y="205" as="sourcePoint"/>
                    </mxGeometry>
                </mxCell>
                <mxCell id="34" value="" style="ellipse;whiteSpace=wrap;html=1;align=center;aspect=fixed;resizable=0;points=[];outlineConnect=0;sketch=0;" vertex="1" parent="1">
                    <mxGeometry x="620" y="220" width="10" height="10" as="geometry"/>
                </mxCell>
                <mxCell id="36" value="" style="rounded=0;orthogonalLoop=1;jettySize=auto;html=1;endArrow=none;endFill=0;sketch=0;sourcePerimeterSpacing=0;targetPerimeterSpacing=0;" edge="1" target="38" parent="1">
                    <mxGeometry relative="1" as="geometry">
                        <mxPoint x="705" y="240" as="sourcePoint"/>
                    </mxGeometry>
                </mxCell>
                <mxCell id="37" value="Scan and Restor" style="rounded=0;orthogonalLoop=1;jettySize=auto;html=1;endArrow=halfCircle;endFill=0;entryX=0.5;entryY=0.5;endSize=6;strokeWidth=1;sketch=0;" edge="1" target="38" parent="1">
                    <mxGeometry relative="1" as="geometry">
                        <mxPoint x="705" y="190" as="sourcePoint"/>
                    </mxGeometry>
                </mxCell>
                <mxCell id="38" value="" style="ellipse;whiteSpace=wrap;html=1;align=center;aspect=fixed;resizable=0;points=[];outlineConnect=0;sketch=0;" vertex="1" parent="1">
                    <mxGeometry x="700" y="220" width="10" height="10" as="geometry"/>
                </mxCell>
                <mxCell id="39" value="" style="rounded=0;orthogonalLoop=1;jettySize=auto;html=1;endArrow=none;endFill=0;sketch=0;sourcePerimeterSpacing=0;targetPerimeterSpacing=0;" edge="1" target="41" parent="1">
                    <mxGeometry relative="1" as="geometry">
                        <mxPoint x="595" y="440" as="sourcePoint"/>
                    </mxGeometry>
                </mxCell>
                <mxCell id="40" value="Scan" style="rounded=0;orthogonalLoop=1;jettySize=auto;html=1;endArrow=halfCircle;endFill=0;entryX=0.5;entryY=0.5;endSize=6;strokeWidth=1;sketch=0;" edge="1" target="41" parent="1">
                    <mxGeometry relative="1" as="geometry">
                        <mxPoint x="595" y="300" as="sourcePoint"/>
                    </mxGeometry>
                </mxCell>
                <mxCell id="41" value="" style="ellipse;whiteSpace=wrap;html=1;align=center;aspect=fixed;resizable=0;points=[];outlineConnect=0;sketch=0;" vertex="1" parent="1">
                    <mxGeometry x="590" y="340" width="10" height="10" as="geometry"/>
                </mxCell>
                <mxCell id="42" value="Restor" style="rounded=0;orthogonalLoop=1;jettySize=auto;html=1;endArrow=none;endFill=0;sketch=0;sourcePerimeterSpacing=0;targetPerimeterSpacing=0;exitX=0.928;exitY=1.05;exitDx=0;exitDy=0;exitPerimeter=0;" edge="1" target="44" parent="1" source="31">
                    <mxGeometry relative="1" as="geometry">
                        <mxPoint x="740" y="345" as="sourcePoint"/>
                    </mxGeometry>
                </mxCell>
                <mxCell id="43" value="" style="rounded=0;orthogonalLoop=1;jettySize=auto;html=1;endArrow=halfCircle;endFill=0;entryX=0.5;entryY=0.5;endSize=6;strokeWidth=1;sketch=0;" edge="1" target="44" parent="1">
                    <mxGeometry relative="1" as="geometry">
                        <mxPoint x="785" y="370" as="sourcePoint"/>
                    </mxGeometry>
                </mxCell>
                <mxCell id="44" value="" style="ellipse;whiteSpace=wrap;html=1;align=center;aspect=fixed;resizable=0;points=[];outlineConnect=0;sketch=0;" vertex="1" parent="1">
                    <mxGeometry x="780" y="330" width="10" height="10" as="geometry"/>
                </mxCell>
                <mxCell id="45" value="" style="rounded=0;orthogonalLoop=1;jettySize=auto;html=1;endArrow=none;endFill=0;sketch=0;sourcePerimeterSpacing=0;targetPerimeterSpacing=0;" edge="1" target="47" parent="1">
                    <mxGeometry relative="1" as="geometry">
                        <mxPoint x="715" y="370" as="sourcePoint"/>
                    </mxGeometry>
                </mxCell>
                <mxCell id="46" value="Select" style="rounded=0;orthogonalLoop=1;jettySize=auto;html=1;endArrow=halfCircle;endFill=0;entryX=0.5;entryY=0.5;endSize=6;strokeWidth=1;sketch=0;" edge="1" target="47" parent="1">
                    <mxGeometry relative="1" as="geometry">
                        <mxPoint x="715" y="300" as="sourcePoint"/>
                    </mxGeometry>
                </mxCell>
                <mxCell id="47" value="" style="ellipse;whiteSpace=wrap;html=1;align=center;aspect=fixed;resizable=0;points=[];outlineConnect=0;sketch=0;" vertex="1" parent="1">
                    <mxGeometry x="710" y="330" width="10" height="10" as="geometry"/>
                </mxCell>
            </root>
        </mxGraphModel>
    </diagram>
</mxfile>